[Header]
FileType HTR
DataType HTRS
FileVersion 1
NumSegments 64
NumFrames 4
DataFrameRate 30
EulerRotationOrder ZYX
CalibrationUnits mm
RotationUnits Degrees
GlobalAxisofGravity Y
BoneLengthAxis Y
ScaleFactor 1.0
[SegmentNames&Hierarchy]
Hips	GLOBAL
Spine	Hips
Spine1	Spine
Spine2	Spine1
Neck	Spine2
Head	Neck
LeftEye	Head
RightEye	Head
LeftShoulder	Spine2
LeftArm	LeftShoulder
LeftForeArm	LeftArm
LeftHand	LeftForeArm
LeftHandThumb1	LeftHand
LeftHandThumb2	LeftHandThumb1
LeftHandThumb3	LeftHandThumb2
LeftHandThumb4	LeftHandThumb3
LeftHandIndex1	LeftHand
LeftHandIndex2	LeftHandIndex1
LeftHandIndex3	LeftHandIndex2
LeftHandIndex4	LeftHandIndex3
LeftHandMiddle1	LeftHand
LeftHandMiddle2	LeftHandMiddle1
LeftHandMiddle3	LeftHandMiddle2
LeftHandMiddle4	LeftHandMiddle3
LeftHandRing1	LeftHand
LeftHandRing2	LeftHandRing1
LeftHandRing3	LeftHandRing2
LeftHandRing4	LeftHandRing3
LeftHandPinky1	LeftHand
LeftHandPinky2	LeftHandPinky1
LeftHandPinky3	LeftHandPinky2
LeftHandPinky4	LeftHandPinky3
RightShoulder	Spine2
RightArm	RightShoulder
RightForeArm	RightArm
RightHand	RightForeArm
RightHandPinky1	RightHand
RightHandPinky2	RightHandPinky1
RightHandPinky3	RightHandPinky2
RightHandPinky4	RightHandPinky3
RightHandRing1	RightHand
RightHandRing2	RightHandRing1
RightHandRing3	RightHandRing2
RightHandRing4	RightHandRing3
RightHandMiddle1	RightHand
RightHandMiddle2	RightHandMiddle1
RightHandMiddle3	RightHandMiddle2
RightHandMiddle4	RightHandMiddle3
RightHandIndex1	RightHand
RightHandIndex2	RightHandIndex1
RightHandIndex3	RightHandIndex2
RightHandIndex4	RightHandIndex3
RightHandThumb1	RightHand
RightHandThumb2	RightHandThumb1
RightHandThumb3	RightHandThumb2
RightHandThumb4	RightHandThumb3
LeftUpLeg	Hips
LeftLeg	LeftUpLeg
LeftFoot	LeftLeg
LeftToeBase	LeftFoot
RightUpLeg	Hips
RightLeg	RightUpLeg
RightFoot	RightLeg
RightToeBase	RightFoot
[BasePosition]
Hips	0	0	0	0	0	0	1
Spine	0	0	0	0	0	0	1
Spine1	0	0	0	0	0	0	1
Spine2	0	0	0	0	0	0	1
Neck	0	0	0	0	0	0	1
Head	0	0	0	0	0	0	1
LeftEye	0	0	0	0	0	0	1
RightEye	0	0	0	0	0	0	1
LeftShoulder	0	0	0	0	0	0	1
LeftArm	0	0	0	0	0	0	1
LeftForeArm	0	0	0	0	0	0	1
LeftHand	0	0	0	0	0	0	1
LeftHandThumb1	0	0	0	0	0	0	1
LeftHandThumb2	0	0	0	0	0	0	1
LeftHandThumb3	0	0	0	0	0	0	1
LeftHandThumb4	0	0	0	0	0	0	1
LeftHandIndex1	0	0	0	0	0	0	1
LeftHandIndex2	0	0	0	0	0	0	1
LeftHandIndex3	0	0	0	0	0	0	1
LeftHandIndex4	0	0	0	0	0	0	1
LeftHandMiddle1	0	0	0	0	0	0	1
LeftHandMiddle2	0	0	0	0	0	0	1
LeftHandMiddle3	0	0	0	0	0	0	1
LeftHandMiddle4	0	0	0	0	0	0	1
LeftHandRing1	0	0	0	0	0	0	1
LeftHandRing2	0	0	0	0	0	0	1
LeftHandRing3	0	0	0	0	0	0	1
LeftHandRing4	0	0	0	0	0	0	1
LeftHandPinky1	0	0	0	0	0	0	1
LeftHandPinky2	0	0	0	0	0	0	1
LeftHandPinky3	0	0	0	0	0	0	1
LeftHandPinky4	0	0	0	0	0	0	1
RightShoulder	0	0	0	0	0	0	1
RightArm	0	0	0	0	0	0	1
RightForeArm	0	0	0	0	0	0	1
RightHand	0	0	0	0	0	0	1
RightHandPinky1	0	0	0	0	0	0	1
RightHandPinky2	0	0	0	0	0	0	1
RightHandPinky3	0	0	0	0	0	0	1
RightHandPinky4	0	0	0	0	0	0	1
RightHandRing1	0	0	0	0	0	0	1
RightHandRing2	0	0	0	0	0	0	1
RightHandRing3	0	0	0	0	0	0	1
RightHandRing4	0	0	0	0	0	0	1
RightHandMiddle1	0	0	0	0	0	0	1
RightHandMiddle2	0	0	0	0	0	0	1
RightHandMiddle3	0	0	0	0	0	0	1
RightHandMiddle4	0	0	0	0	0	0	1
RightHandIndex1	0	0	0	0	0	0	1
RightHandIndex2	0	0	0	0	0	0	1
RightHandIndex3	0	0	0	0	0	0	1
RightHandIndex4	0	0	0	0	0	0	1
RightHandThumb1	0	0	0	0	0	0	1
RightHandThumb2	0	0	0	0	0	0	1
RightHandThumb3	0	0	0	0	0	0	1
RightHandThumb4	0	0	0	0	0	0	1
LeftUpLeg	0	0	0	0	0	0	1
LeftLeg	0	0	0	0	0	0	1
LeftFoot	0	0	0	0	0	0	1
LeftToeBase	0	0	0	0	0	0	1
RightUpLeg	0	0	0	0	0	0	1
RightLeg	0	0	0	0	0	0	1
RightFoot	0	0	0	0	0	0	1
RightToeBase	0	0	0	0	0	0	1
[Hips]
111	-127.2594452	773.038269	994.4995728	-358.4091797	3.312604189	4.445353985	1.0
112	-124.8998947	787.0913696	1021.452942	-355.5782166	5.007972717	5.027884483	1.0
113	-122.0623627	807.4801636	1043.48645	-353.028717	6.900762081	7.728092194	1.0
114	-121.1767654	832.5656128	1063.078735	-351.164856	8.895129204	10.79998684	1.0
[Spine]
111	0	101.8159943	1.315000057	3.111880541	-6.931513786	2.007456303	1.0
112	0	101.8159943	1.315000057	3.037229538	-6.635825157	2.557215452	1.0
113	0	101.8159943	1.315000057	2.871264219	-6.533921719	2.358543873	1.0
114	0	101.8159943	1.315000057	2.736032248	-6.281581402	1.859093428	1.0
[Spine1]
111	0	100.8349991	-10.00800037	5.980563641	-14.2184906	4.473901272	1.0
112	0	100.8349991	-10.00800037	5.751625538	-13.49664879	6.058075905	1.0
113	0	100.8349991	-10.00800037	5.406275749	-13.21614552	6.401438713	1.0
114	0	100.8349991	-10.00800037	5.159543991	-12.69517899	6.181316376	1.0
[Spine2]
111	0	91	-13.73399925	5.980564594	-14.21848488	4.473899841	1.0
112	0	91	-13.73399925	5.751625061	-13.49664974	6.058075905	1.0
113	0	91	-13.73399925	5.406274796	-13.21614552	6.401438236	1.0
114	0	91	-13.73399925	5.159541607	-12.69517899	6.181307793	1.0
[Neck]
111	0	166.7169952	-25.16200066	-3.992806196	5.254456997	-8.002614021	1.0
112	0	166.7169952	-25.16200066	-3.955201387	5.457709789	-6.164488792	1.0
113	0	166.7169952	-25.16200066	-3.773859501	5.760053635	-3.790892601	1.0
114	0	166.7169952	-25.16200066	-3.588892698	5.735284805	-1.108276486	1.0
[Head]
111	0	96.17900085	16.84999847	-40.35884476	11.18467426	-12.63206291	1.0
112	0	96.17900085	16.84999847	-44.69067764	13.4346323	-12.34942055	1.0
113	0	96.17900085	16.84999847	-46.19784164	16.08787537	-11.16233158	1.0
114	0	96.17900085	16.84999847	-46.33027649	17.53588867	-9.46075058	1.0
[LeftEye]
111	30.6760006	64.09500122	92.83599854	0	0	0	1.0
112	30.6760006	64.09500122	92.83599854	0	0	0	1.0
113	30.6760006	64.09500122	92.83599854	0	0	0	1.0
114	30.6760006	64.09500122	92.83599854	0	0	0	1.0
[RightEye]
111	-30.6760006	64.09500122	92.83499908	0	0	0	1.0
112	-30.6760006	64.09500122	92.83499908	0	0	0	1.0
113	-30.6760006	64.09500122	92.83499908	0	0	0	1.0
114	-30.6760006	64.09500122	92.83499908	0	0	0	1.0
[LeftShoulder]
111	45.70400238	109.4599991	-26.28000069	-1.370258689	-13.52448463	7.425804138	1.0
112	45.70400238	109.4599991	-26.28000069	-1.959407091	-18.73892403	7.914886475	1.0
113	45.70400238	109.4599991	-26.28000069	-2.002141953	-24.63583565	6.584312916	1.0
114	45.70400238	109.4599991	-26.28000069	-1.313382268	-27.79975128	4.05175972	1.0
[LeftArm]
111	105.923996	-5.24600029	-22.32099915	-76.79733276	-64.1503067	65.33761597	1.0
112	105.923996	-5.24600029	-22.32099915	-41.47584534	-68.77977753	24.37223625	1.0
113	105.923996	-5.24600029	-22.32099915	-18.00579262	-52.50336075	-9.717428207	1.0
114	105.923996	-5.24600029	-22.32099915	-9.333239555	-25.70213509	-30.04425049	1.0
[LeftForeArm]
111	278.414978	-0.0009999999311	0	-723.810791	-47.23039246	719.1486206	1.0
112	278.414978	-0.0009999999311	0	-722.0527344	-33.44435501	718.4919434	1.0
113	278.414978	-0.0009999999311	0	-720.774231	-36.59878922	717.9580078	1.0
114	278.414978	-0.0009999999311	0	-719.4049683	-51.02540588	717.015625	1.0
[LeftHand]
111	283.2879944	0	0	18.61327171	-23.23617935	1.502686381	1.0
112	283.2879944	0	0	29.00221062	-24.66311455	-3.865292072	1.0
113	283.2879944	0	0	21.90297318	-17.13484573	-10.05821609	1.0
114	283.2879944	0	0	3.392534494	-7.585476875	-11.78171253	1.0
[LeftHandThumb1]
111	24.6609993	-15.75	26.8239994	5.766945362	-4.049151897	5.234989166	1.0
112	24.6609993	-15.75	26.8239994	8.830051422	-3.815558672	14.40621281	1.0
113	24.6609993	-15.75	26.8239994	11.02409363	-3.566357851	20.33946037	1.0
114	24.6609993	-15.75	26.8239994	11.80916786	-3.302536249	22.84324646	1.0
[LeftHandThumb2]
111	32.29800034	-18.64699936	18.64699936	2.406256437	32.01176453	-20.57505226	1.0
112	32.29800034	-18.64699936	18.64699936	2.565470219	27.34434891	-16.63814354	1.0
113	32.29800034	-18.64699936	18.64699936	3.26335907	23.49881554	-13.10017395	1.0
114	32.29800034	-18.64699936	18.64699936	4.426886559	20.76355743	-10.22688484	1.0
[LeftHandThumb3]
111	26.52600098	-15.31499958	15.31499958	3.601811159e-06	-8.438974328e-05	-6.943767221e-05	1.0
112	26.52600098	-15.31499958	15.31499958	3.601811159e-06	-8.438974328e-05	-6.943767221e-05	1.0
113	26.52600098	-15.31499958	15.31499958	3.601811159e-06	-8.438974328e-05	-6.943767221e-05	1.0
114	26.52600098	-15.31499958	15.31499958	3.601811159e-06	-8.438974328e-05	-6.943767221e-05	1.0
[LeftHandThumb4]
111	19.54599953	-11.28499985	11.28499985	0	0	0	1.0
112	19.54599953	-11.28499985	11.28499985	0	0	0	1.0
113	19.54599953	-11.28499985	11.28499985	0	0	0	1.0
114	19.54599953	-11.28499985	11.28499985	0	0	0	1.0
[LeftHandIndex1]
111	91.09299469	-5.170999527	22.60099792	0.8334428668	-4.571345806	-78.93820953	1.0
112	91.09299469	-5.170999527	22.60099792	-0.7149657607	-5.939817429	-66.47771454	1.0
113	91.09299469	-5.170999527	22.60099792	-1.572747111	-6.587227345	-57.18850327	1.0
114	91.09299469	-5.170999527	22.60099792	-1.814899683	-6.538691998	-51.21210098	1.0
[LeftHandIndex2]
111	36.76399994	0	0	-0.2726301849	-8.120851517	-85.61411285	1.0
112	36.76399994	0	0	-0.01999074221	-7.885510921	-81.81731415	1.0
113	36.76399994	0	0	0.01608533412	-7.508122444	-77.79654694	1.0
114	36.76399994	0	0	-0.2545005679	-6.829874039	-72.13653564	1.0
[LeftHandIndex3]
111	28.83100128	0	0	-1.432096042e-06	3.907105395e-07	1.552835329e-06	1.0
112	28.83100128	0	0	-1.432096042e-06	3.907105395e-07	1.552835329e-06	1.0
113	28.83100128	0	0	-1.432096042e-06	3.907105395e-07	1.552835329e-06	1.0
114	28.83100128	0	0	-1.432096042e-06	3.907105395e-07	1.552835329e-06	1.0
[LeftHandIndex4]
111	23.92700005	0	0	0	0	0	1.0
112	23.92700005	0	0	0	0	0	1.0
113	23.92700005	0	0	0	0	0	1.0
114	23.92700005	0	0	0	0	0	1.0
[LeftHandMiddle1]
111	95.33399963	0	0	-0.6873749495	-6.891322613	-81.00910187	1.0
112	95.33399963	0	0	-1.302085161	-6.397842407	-71.73997498	1.0
113	95.33399963	0	0	-1.651488304	-5.849222183	-64.4638443	1.0
114	95.33399963	0	0	-1.809232116	-5.287662983	-59.22567749	1.0
[LeftHandMiddle2]
111	36.98199844	0	0	0.7742372751	-8.314893723	-83.04914856	1.0
112	36.98199844	0	0	0.710267961	-7.90453577	-77.21931458	1.0
113	36.98199844	0	0	0.5818554759	-7.474849224	-72.10746765	1.0
114	36.98199844	0	0	0.2988502681	-6.927423954	-66.56702423	1.0
[LeftHandMiddle3]
111	29.50900078	0	0	0	-3.180554719e-15	-7.951386796e-16	1.0
112	29.50900078	0	0	0	-3.180554719e-15	-7.951386796e-16	1.0
113	29.50900078	0	0	0	-3.180554719e-15	-7.951386796e-16	1.0
114	29.50900078	0	0	0	-3.180554719e-15	-7.951386796e-16	1.0
[LeftHandMiddle4]
111	28.3390007	0	0	0	0	0	1.0
112	28.3390007	0	0	0	0	0	1.0
113	28.3390007	0	0	0	0	0	1.0
114	28.3390007	0	0	0	0	0	1.0
[LeftHandRing1]
111	91.04499817	-0.4390000105	-18.65100098	-3.399987459	-6.032632351	-88.09761047	1.0
112	91.04499817	-0.4390000105	-18.65100098	-2.949352741	-3.478553534	-79.71815491	1.0
113	91.04499817	-0.4390000105	-18.65100098	-2.719428062	-1.516914845	-73.1056366	1.0
114	91.04499817	-0.4390000105	-18.65100098	-2.819938421	-0.2682551444	-68.27194214	1.0
[LeftHandRing2]
111	31.54000092	0	0	6.281416893	-2.404277325	-81.44625092	1.0
112	31.54000092	0	0	5.809512138	-2.431216478	-79.16558838	1.0
113	31.54000092	0	0	5.409903526	-2.499088526	-76.40167999	1.0
114	31.54000092	0	0	4.998053074	-2.615702629	-72.05674744	1.0
[LeftHandRing3]
111	29.37700081	0	0	1.590277359e-15	3.180554719e-15	-7.951386796e-16	1.0
112	29.37700081	0	0	1.590277359e-15	3.180554719e-15	-7.951386796e-16	1.0
113	29.37700081	0	0	1.590277359e-15	3.180554719e-15	-7.951386796e-16	1.0
114	29.37700081	0	0	1.590277359e-15	3.180554719e-15	-7.951386796e-16	1.0
[LeftHandRing4]
111	26.47500038	0	0	0	0	0	1.0
112	26.47500038	0	0	0	0	0	1.0
113	26.47500038	0	0	0	0	0	1.0
114	26.47500038	0	0	0	0	0	1.0
[LeftHandPinky1]
111	80.77799988	-4.887000084	-38.06099701	-3.369356155	-7.208646297	-88.03026581	1.0
112	80.77799988	-4.887000084	-38.06099701	-3.289745092	-2.60651207	-78.14019775	1.0
113	80.77799988	-4.887000084	-38.06099701	-3.219204664	0.9200521708	-70.65827179	1.0
114	80.77799988	-4.887000084	-38.06099701	-3.380653381	3.123733997	-65.59385681	1.0
[LeftHandPinky2]
111	36	0	0	10.22295475	-0.1339802742	-86.30502319	1.0
112	36	0	0	9.678495407	0.2432245761	-88.07810211	1.0
113	36	0	0	9.249435425	0.2136917859	-87.54484558	1.0
114	36	0	0	8.910674095	-0.2211115658	-84.41651917	1.0
[LeftHandPinky3]
111	21.14200211	0	0	3.226109357e-06	2.925280342e-06	-5.739977951e-06	1.0
112	21.14200211	0	0	3.226109357e-06	2.925280342e-06	-5.739977951e-06	1.0
113	21.14200211	0	0	3.226109357e-06	2.925280342e-06	-5.739977951e-06	1.0
114	21.14200211	0	0	3.226109357e-06	2.925280342e-06	-5.739977951e-06	1.0
[LeftHandPinky4]
111	19.75699997	0	0	0	0	0	1.0
112	19.75699997	0	0	0	0	0	1.0
113	19.75699997	0	0	0	0	0	1.0
114	19.75699997	0	0	0	0	0	1.0
[RightShoulder]
111	-45.70000076	109.4620056	-26.28000069	0.2154912055	-1.852654219	4.179210186	1.0
112	-45.70000076	109.4620056	-26.28000069	0.4809335768	-0.5016735792	4.814478874	1.0
113	-45.70000076	109.4620056	-26.28000069	0.692192018	0.2178022861	4.891959667	1.0
114	-45.70000076	109.4620056	-26.28000069	1.070985556	0.9458903074	4.933656693	1.0
[RightArm]
111	-105.9280014	-5.248000145	-22.32099915	-360.6364441	-19.1112709	-301.8781433	1.0
112	-105.9280014	-5.248000145	-22.32099915	-357.9860535	-9.829809189	-298.5504761	1.0
113	-105.9280014	-5.248000145	-22.32099915	-355.4023132	-2.31906414	-297.168457	1.0
114	-105.9280014	-5.248000145	-22.32099915	-354.0629578	4.273740768	-295.8811951	1.0
[RightForeArm]
111	-278.414978	0	0	2.698271275	15.80695343	0.4049220681	1.0
112	-278.414978	0	0	2.126021147	10.30767155	0.08732039481	1.0
113	-278.414978	0	0	1.816004157	9.240678787	0.01931686513	1.0
114	-278.414978	0	0	1.563361168	9.352894783	-0.01548112743	1.0
[RightHand]
111	-283.2879944	0	0.0009999999311	3.12394309	21.33793259	15.21978283	1.0
112	-283.2879944	0	0.0009999999311	2.164367676	27.46624565	14.65950966	1.0
113	-283.2879944	0	0.0009999999311	-0.948661387	30.29751396	13.76767349	1.0
114	-283.2879944	0	0.0009999999311	-5.207539558	29.39573097	11.23310661	1.0
[RightHandPinky1]
111	-80.76699829	-4.885000229	-38.06000137	-0.8632351756	13.0879097	102.8280869	1.0
112	-80.76699829	-4.885000229	-38.06000137	-1.123861909	12.75717831	102.2387543	1.0
113	-80.76699829	-4.885000229	-38.06000137	-1.35709846	12.45427418	101.9645462	1.0
114	-80.76699829	-4.885000229	-38.06000137	-1.591230512	12.14100266	102.0491714	1.0
[RightHandPinky2]
111	-36	0	0.0009999999311	14.83819389	1.660583854	97.37365723	1.0
112	-36	0	0.0009999999311	14.63389301	2.00225544	95.20990753	1.0
113	-36	0	0.0009999999311	14.41939449	2.34441328	93.01870728	1.0
114	-36	0	0.0009999999311	14.17187595	2.716783285	90.58956146	1.0
[RightHandPinky3]
111	-21.14200211	0	0	-1.590277359e-15	0	-7.951386796e-16	1.0
112	-21.14200211	0	0	-1.590277359e-15	0	-7.951386796e-16	1.0
113	-21.14200211	0	0	-1.590277359e-15	0	-7.951386796e-16	1.0
114	-21.14200211	0	0	-1.590277359e-15	0	-7.951386796e-16	1.0
[RightHandPinky4]
111	-19.75699997	0	0	0	0	0	1.0
112	-19.75699997	0	0	0	0	0	1.0
113	-19.75699997	0	0	0	0	0	1.0
114	-19.75699997	0	0	0	0	0	1.0
[RightHandRing1]
111	-91.03599548	-0.4390000105	-18.65100098	-2.714635134	9.601278305	101.8096008	1.0
112	-91.03599548	-0.4390000105	-18.65100098	-2.87412262	9.410510063	101.2291412	1.0
113	-91.03599548	-0.4390000105	-18.65100098	-3.008116722	9.243766785	100.9679489	1.0
114	-91.03599548	-0.4390000105	-18.65100098	-3.130374432	9.082989693	101.070694	1.0
[RightHandRing2]
111	-31.54000092	0	0	8.197219849	3.8206141	83.43491364	1.0
112	-31.54000092	0	0	7.947937012	3.913691759	80.95924377	1.0
113	-31.54000092	0	0	7.700000286	3.997534037	78.52124786	1.0
114	-31.54000092	0	0	7.431100368	4.077054024	75.90649414	1.0
[RightHandRing3]
111	-29.37700081	0	0	5.740008078e-07	-7.531911024e-07	-2.69121324e-06	1.0
112	-29.37700081	0	0	5.740008078e-07	-7.531911024e-07	-2.69121324e-06	1.0
113	-29.37700081	0	0	5.740008078e-07	-7.531911024e-07	-2.69121324e-06	1.0
114	-29.37700081	0	0	5.740008078e-07	-7.531911024e-07	-2.69121324e-06	1.0
[RightHandRing4]
111	-26.47500038	0	0	0	0	0	1.0
112	-26.47500038	0	0	0	0	0	1.0
113	-26.47500038	0	0	0	0	0	1.0
114	-26.47500038	0	0	0	0	0	1.0
[RightHandMiddle1]
111	-95.32500458	0	0	-0.3993219137	7.382992744	96.75927734	1.0
112	-95.32500458	0	0	-0.4544602036	7.329529285	96.17965698	1.0
113	-95.32500458	0	0	-0.4775818288	7.307075024	95.93465424	1.0
114	-95.32500458	0	0	-0.4644769132	7.32100296	96.07378387	1.0
[RightHandMiddle2]
111	-36.98199844	0	0	-0.3279780149	7.636371136	91.12467194	1.0
112	-36.98199844	0	0	-0.5517491698	7.4338274	88.3097229	1.0
113	-36.98199844	0	0	-0.7665883303	7.218138695	85.52057648	1.0
114	-36.98199844	0	0	-0.9887620211	6.969914436	82.50012207	1.0
[RightHandMiddle3]
111	-29.50900078	0	0	1.856611448e-06	-0.002022909233	1.577868488e-06	1.0
112	-29.50900078	0	0	1.856611448e-06	-0.002022909233	1.577868488e-06	1.0
113	-29.50900078	0	0	1.856611448e-06	-0.002022909233	1.577868488e-06	1.0
114	-29.50900078	0	0	1.856611448e-06	-0.002022909233	1.577868488e-06	1.0
[RightHandMiddle4]
111	-28.3390007	0	0.0009999999311	0	0	0	1.0
112	-28.3390007	0	0.0009999999311	0	0	0	1.0
113	-28.3390007	0	0.0009999999311	0	0	0	1.0
114	-28.3390007	0	0.0009999999311	0	0	0	1.0
[RightHandIndex1]
111	-91.08300018	-5.167999744	22.60099792	3.107954979	1.847509742	101.5097198	1.0
112	-91.08300018	-5.167999744	22.60099792	3.107633591	1.879876256	100.8834305	1.0
113	-91.08300018	-5.167999744	22.60099792	3.139167309	1.935298085	100.6202469	1.0
114	-91.08300018	-5.167999744	22.60099792	3.21562314	2.02984333	100.7731705	1.0
[RightHandIndex2]
111	-36.76399994	0	0	-1.977689028	7.013245583	90.65322113	1.0
112	-36.76399994	0	0	-2.230367899	6.679388046	87.39640045	1.0
113	-36.76399994	0	0	-2.465770483	6.328171253	84.16075134	1.0
114	-36.76399994	0	0	-2.700575829	5.927207947	80.63957214	1.0
[RightHandIndex3]
111	-28.83100128	0	0	-3.180554719e-15	0	0	1.0
112	-28.83100128	0	0	-3.180554719e-15	0	0	1.0
113	-28.83100128	0	0	-3.180554719e-15	0	0	1.0
114	-28.83100128	0	0	-3.180554719e-15	0	0	1.0
[RightHandIndex4]
111	-23.92700005	0	0	0	0	0	1.0
112	-23.92700005	0	0	0	0	0	1.0
113	-23.92700005	0	0	0	0	0	1.0
114	-23.92700005	0	0	0	0	0	1.0
[RightHandThumb1]
111	-24.64799881	-15.72700024	26.82600021	19.63013649	32.73054504	-12.62922287	1.0
112	-24.64799881	-15.72700024	26.82600021	19.66125298	33.0942421	-13.2439518	1.0
113	-24.64799881	-15.72700024	26.82600021	19.59254074	33.30241013	-13.73707294	1.0
114	-24.64799881	-15.72700024	26.82600021	19.38741684	33.33592224	-14.1396637	1.0
[RightHandThumb2]
111	-32.29800034	-18.64699936	18.64699936	-2.40435338	-28.47590446	70.52381897	1.0
112	-32.29800034	-18.64699936	18.64699936	-1.817270875	-27.63623238	70.28715515	1.0
113	-32.29800034	-18.64699936	18.64699936	-1.249130487	-26.77431488	69.83030701	1.0
114	-32.29800034	-18.64699936	18.64699936	-0.6265671253	-25.7514286	69.0102005	1.0
[RightHandThumb3]
111	-26.52600098	-15.31399918	15.31399918	-3.81245151e-08	-0.00121095567	-0.001221005921	1.0
112	-26.52600098	-15.31399918	15.31399918	-3.81245151e-08	-0.00121095567	-0.001221005921	1.0
113	-26.52600098	-15.31399918	15.31399918	-3.81245151e-08	-0.00121095567	-0.001221005921	1.0
114	-26.52600098	-15.31399918	15.31399918	-3.81245151e-08	-0.00121095567	-0.001221005921	1.0
[RightHandThumb4]
111	-19.54599953	-11.28499985	11.28499985	0	0	0	1.0
112	-19.54599953	-11.28499985	11.28499985	0	0	0	1.0
113	-19.54599953	-11.28499985	11.28499985	0	0	0	1.0
114	-19.54599953	-11.28499985	11.28499985	0	0	0	1.0
[LeftUpLeg]
111	82.07800293	-67.51699829	-15.99599934	22.18714333	17.60496902	18.97738647	1.0
112	82.07800293	-67.51699829	-15.99599934	19.24146652	18.5249176	16.97017097	1.0
113	82.07800293	-67.51699829	-15.99599934	17.85091209	20.68574142	14.35812283	1.0
114	82.07800293	-67.51699829	-15.99599934	18.12936401	22.58807564	12.23699856	1.0
[LeftLeg]
111	0	-443.7049866	2.845999956	42.28112793	-3.907104015	8.542562485	1.0
112	0	-443.7049866	2.845999956	39.5647583	0.5961669087	10.83860779	1.0
113	0	-443.7049866	2.845999956	34.86029053	3.790586948	10.29396343	1.0
114	0	-443.7049866	2.845999956	28.38386726	6.836005688	7.944882393	1.0
[LeftFoot]
111	0	-444.2789917	-29.8219986	-16.40551758	-0.4485193193	-4.37460947	1.0
112	0	-444.2789917	-29.8219986	-17.24712372	-0.2854466736	-3.45781374	1.0
113	0	-444.2789917	-29.8219986	-18.04776955	0.6423940063	-3.597300291	1.0
114	0	-444.2789917	-29.8219986	-17.39551735	1.336921692	-5.039544582	1.0
[LeftToeBase]
111	0	-87.28699493	107.1060028	-34.54800034	-0.3209465742	-0.476439178	1.0
112	0	-87.28699493	107.1060028	-33.10165024	-0.9267846346	-1.534973383	1.0
113	0	-87.28699493	107.1060028	-27.8687458	-0.7221857905	-1.406263351	1.0
114	0	-87.28699493	107.1060028	-21.63939476	-0.225356251	-0.4922409654	1.0
[RightUpLeg]
111	-82.07800293	-67.51699829	-15.99599934	-66.46273041	1.446543097	-9.863560677	1.0
112	-82.07800293	-67.51699829	-15.99599934	-66.59281921	-2.38549757	-10.18591785	1.0
113	-82.07800293	-67.51699829	-15.99599934	-65.59688568	-7.304432869	-12.07031631	1.0
114	-82.07800293	-67.51699829	-15.99599934	-63.15235901	-11.77478123	-14.07732487	1.0
[RightLeg]
111	0	-443.7049866	2.861999989	71.60529327	8.73855114	4.600672245	1.0
112	0	-443.7049866	2.861999989	71.48056793	7.778780937	5.682541847	1.0
113	0	-443.7049866	2.861999989	70.04942322	7.570146084	7.131850719	1.0
114	0	-443.7049866	2.861999989	67.48655701	8.158901215	8.348451614	1.0
[RightFoot]
111	0	-444.2770081	-29.83799934	-7.263348579	0.09539220482	11.4558363	1.0
112	0	-444.2770081	-29.83799934	-9.272603989	1.13814199	9.547387123	1.0
113	0	-444.2770081	-29.83799934	-10.40690899	2.101449728	7.822302341	1.0
114	0	-444.2770081	-29.83799934	-11.04948902	2.348308325	6.59043932	1.0
[RightToeBase]
111	0	-87.28699493	107.1060028	-3.271543741	-2.390909799e-07	-4.095135253e-08	1.0
112	0	-87.28699493	107.1060028	-2.525112629	-1.699005907e-06	5.885263477e-07	1.0
113	0	-87.28699493	107.1060028	-1.862284303	1.469947392e-06	2.450392685e-06	1.0
114	0	-87.28699493	107.1060028	-1.342897296	8.682924886e-07	2.052428272e-06	1.0
[EndOfFile]
